<svg xmlns="http://www.w3.org/2000/svg" version="1.1"  xmlns:xlink="http://www.w3.org/1999/xlink" xmlns:svgjs="http://svgjs.dev/svgjs" width="200" height="200" viewBox="0 0 2000 1999"><g transform="matrix(1,0,0,1,-0.431486880466764,-0.4312711370263287)"><svg viewBox="0 0 343 343" data-background-color="#ffffff" preserveAspectRatio="xMidYMid meet" height="1999" width="2000" xmlns="http://www.w3.org/2000/svg" xmlns:xlink="http://www.w3.org/1999/xlink"><g id="tight-bounds" transform="matrix(1,0,0,1,0.0740000000000407,0.07400000000001228)"><svg viewBox="0 0 342.85155851775386 342.85155851775386" height="342.85155851775386" width="342.85155851775386"><g><svg></svg></g><g><svg viewBox="0 0 342.85155851775386 342.85155851775386" height="342.85155851775386" width="342.85155851775386"><g><path d="M0 171.426c0-94.676 76.75-171.426 171.426-171.426 94.676 0 171.426 76.75 171.426 171.426 0 94.676-76.75 171.426-171.426 171.426-94.676 0-171.426-76.75-171.426-171.426zM171.426 337.657c91.807 0 166.232-74.424 166.231-166.231 0-91.807-74.424-166.232-166.231-166.232-91.807 0-166.232 74.424-166.232 166.232 0 91.807 74.424 166.232 166.232 166.231z" data-fill-palette-color="tertiary" fill="#e56d90" stroke="transparent"></path><ellipse rx="164.56874808852186" ry="164.56874808852186" cx="171.42577925887693" cy="171.42577925887693" fill="#e56d90" stroke="transparent" stroke-width="0" fill-opacity="1" data-fill-palette-color="tertiary"></ellipse></g><g transform="matrix(1,0,0,1,64.84655864529837,96.02944271166518)"><svg viewBox="0 0 213.1584412271571 150.7926730944235" height="150.7926730944235" width="213.1584412271571"><g><svg viewBox="0 0 213.1584412271571 150.7926730944235" height="150.7926730944235" width="213.1584412271571"><g><svg viewBox="0 0 213.1584412271571 150.7926730944235" height="150.7926730944235" width="213.1584412271571"><g transform="matrix(1,0,0,1,0,93.19592147436988)"><svg viewBox="0 0 213.1584412271571 57.59675162005362" height="57.59675162005362" width="213.1584412271571"><g><svg viewBox="0 0 213.1584412271571 57.59675162005362" height="57.59675162005362" width="213.1584412271571"><g><svg viewBox="0 0 213.1584412271571 57.59675162005362" height="57.59675162005362" width="213.1584412271571"><g transform="matrix(1,0,0,1,0,0)"><svg width="213.1584412271571" viewBox="2.9800000190734863 -37.5 144.37001037597656 39.0099983215332" height="57.59675162005362" data-palette-color="#ffffff"><path d="M22.22-27.49L22.22-27.49Q22.22-26.95 22.44-26.59 22.66-26.22 22.66-25.93L22.66-25.93Q22.56-25.44 22.85-24.78 23.14-24.12 23.14-23.44L23.14-23.44Q23.05-23.14 22.39-22.68 21.73-22.22 20.92-21.68 20.12-21.14 19.36-20.63 18.6-20.12 18.31-19.82L18.31-19.82Q18.55-19.43 18.92-19.19 19.29-18.95 19.63-18.7L19.63-18.7Q19.92-18.46 20.48-17.99 21.04-17.53 21.66-16.99 22.27-16.46 22.78-15.97 23.29-15.48 23.44-15.23L23.44-15.23Q23.54-15.19 23.61-14.89 23.68-14.6 23.73-14.23 23.78-13.87 23.8-13.53 23.83-13.18 23.83-13.09L23.83-13.09Q23.78-12.55 23.85-12.3 23.93-12.06 24-11.79 24.07-11.52 24.12-11.28 24.17-11.04 24.17-11.04L24.17-11.04Q24.17-10.74 23.9-10.5 23.63-10.25 23.39-10.06L23.39-10.06Q23.14-9.86 22.92-9.67 22.71-9.47 22.46-9.23L22.46-9.23Q22.17-8.98 21.8-8.76 21.44-8.54 21.14-8.3L21.14-8.3Q20.95-8.2 20.8-8.03 20.65-7.86 20.51-7.76L20.51-7.76Q20.07-7.37 19.53-7.01 18.99-6.64 18.51-6.35L18.51-6.35Q17.97-6.01 17.48-5.64 16.99-5.27 16.46-4.88L16.46-4.88Q15.72-4.44 15.01-4.03 14.31-3.61 13.62-3.17L13.62-3.17Q13.28-2.93 12.96-2.69 12.65-2.44 12.3-2.25L12.3-2.25Q11.33-1.71 10.35-1.12 9.38-0.54 8.45 0.15L8.45 0.15Q7.67 0.34 7.32 0.46 6.98 0.59 6.64 0.59L6.64 0.59Q6.35 0.59 6.27 0.37 6.2 0.15 6.01 0.15L6.01 0.15Q5.27 0.24 5.2 0.17 5.13 0.1 4.98 0L4.98 0Q4.25 0.1 3.76 0L3.76 0Q3.61-0.24 3.56-0.61 3.52-0.98 3.27-1.22L3.27-1.22Q3.37-1.71 3.3-2.15 3.22-2.59 3.32-3.03L3.32-3.03Q3.17-3.61 3.17-4.1L3.17-4.1Q3.17-4.74 3.32-5.42L3.32-5.42Q3.17-5.86 3.17-6.3L3.17-6.3Q3.17-6.69 3.22-7.08 3.27-7.47 3.27-7.86L3.27-7.86Q3.27-8.35 3.08-8.74L3.08-8.74Q3.08-9.62 3.05-10.47 3.03-11.33 3.03-12.21L3.03-12.21Q3.03-12.6 3.03-12.99 3.03-13.38 3.08-13.82L3.08-13.82Q3.03-14.06 3.03-14.55L3.03-14.55Q3.03-14.84 3.13-15.06 3.22-15.28 3.22-15.53L3.22-15.53Q3.22-16.06 3.15-16.55 3.08-17.04 3.08-17.58L3.08-17.58Q3.08-18.07 3.15-18.51 3.22-18.95 3.22-19.43L3.22-19.43Q3.08-19.63 3.03-19.87 2.98-20.12 2.98-20.36L2.98-20.36Q2.98-20.56 3.08-20.95L3.08-20.95Q3.08-21.34 3.03-21.78 2.98-22.22 2.98-22.61L2.98-22.61Q2.98-22.8 3-22.95 3.03-23.1 3.08-23.29L3.08-23.29Q2.98-23.63 2.98-23.97 2.98-24.32 2.98-24.66L2.98-24.66Q2.98-25.1 3.03-25.56 3.08-26.03 3.08-26.46L3.08-26.46Q3.03-27.2 3.1-27.61 3.17-28.03 3.22-28.47L3.22-28.47 3.22-31.25Q3.22-31.64 3.13-32.1 3.03-32.57 3.03-33.01L3.03-33.01Q3.03-33.25 3.08-33.74 3.13-34.23 3.22-34.47L3.22-34.47Q3.91-35.5 4.83-35.64L4.83-35.64Q5.03-35.74 5.13-35.91 5.22-36.08 5.57-36.08L5.57-36.08Q6.15-36.57 6.35-36.84 6.54-37.11 6.84-37.35L6.84-37.35Q6.98-37.35 7.1-37.43 7.23-37.5 7.42-37.5L7.42-37.5Q7.76-37.4 7.98-37.3 8.2-37.21 8.45-37.16L8.45-37.16Q9.42-36.43 10.38-35.72 11.33-35.01 12.3-34.23L12.3-34.23Q12.74-33.84 13.16-33.45 13.57-33.06 14.01-32.71L14.01-32.71Q14.26-32.57 14.55-32.42 14.84-32.28 15.09-32.08L15.09-32.08Q15.63-31.74 16.16-31.37 16.7-31.01 17.24-30.66L17.24-30.66 20.75-28.47Q21.14-28.22 21.51-27.98 21.88-27.73 22.22-27.49ZM15.23-25.39L15.23-25.39Q14.5-25.73 13.84-26.22 13.18-26.71 12.45-26.95L12.45-26.95Q12.06-27.34 11.62-27.49 11.18-27.64 10.79-27.93L10.79-27.93Q10.35-28.32 10.01-28.61 9.67-28.91 9.13-29.15L9.13-29.15Q8.89-27.64 8.76-26.2 8.64-24.76 8.64-23.29L8.64-23.29Q8.64-21.78 8.94-20.41L8.94-20.41Q9.47-20.65 9.96-20.95 10.45-21.24 10.94-21.53L10.94-21.53Q11.13-21.63 11.3-21.73 11.47-21.83 11.72-21.92L11.72-21.92Q11.96-22.12 12.21-22.31 12.45-22.51 12.7-22.66L12.7-22.66Q13.23-23.05 13.75-23.36 14.26-23.68 14.79-24.07L14.79-24.07Q15.04-24.27 15.33-24.39 15.63-24.51 15.92-24.76L15.92-24.76Q15.87-24.95 15.6-25.07 15.33-25.2 15.23-25.39ZM13.82-16.26L13.82-16.26Q13.67-16.26 13.53-16.33 13.38-16.41 13.18-16.41L13.18-16.41Q12.6-16.02 12.08-15.75 11.57-15.48 11.04-15.14L11.04-15.14Q10.79-14.99 10.55-14.79 10.3-14.6 10.06-14.5L10.06-14.5Q9.42-14.11 9.08-13.84 8.74-13.57 8.54-13.18L8.54-13.18Q8.64-11.82 8.62-10.45 8.59-9.08 8.59-7.67L8.59-7.67Q8.59-7.42 8.74-7.13L8.74-7.13Q9.18-7.18 10.3-7.79 11.43-8.4 12.67-9.18 13.92-9.96 15.06-10.69 16.21-11.43 16.75-11.77L16.75-11.77Q17.14-11.87 17.65-12.16 18.16-12.45 18.26-12.84L18.26-12.84Q17.33-13.92 16.11-14.62 14.89-15.33 13.82-16.26ZM35.59-33.2L35.59-33.2Q35.59-32.76 35.3-32.54 35.01-32.32 34.76-31.98L34.76-31.98Q34.27-31.54 33.91-31.08 33.54-30.62 33.05-30.18L33.05-30.18Q32.86-29.98 32.52-29.66 32.18-29.35 31.81-29.03 31.44-28.71 31.08-28.47 30.71-28.22 30.47-28.22L30.47-28.22Q30.08-28.22 29.47-28.49 28.85-28.76 28.42-28.86L28.42-28.86Q28.07-28.91 27.81-28.93 27.54-28.96 27.29-29.2L27.29-29.2Q26.41-29.39 26.17-29.81 25.93-30.22 25.63-30.66L25.63-30.66Q25.63-30.86 25.78-30.91 25.93-30.96 26.02-31.1L26.02-31.1Q26.51-31.74 26.85-32.15 27.19-32.57 27.63-33.01L27.63-33.01Q28.46-33.74 29.22-34.52 29.98-35.3 30.81-35.99L30.81-35.99Q31.2-36.04 31.39-36.28 31.59-36.52 31.98-36.52L31.98-36.52Q32.37-36.52 32.64-36.28 32.91-36.04 33.13-35.72 33.35-35.4 33.57-35.08 33.79-34.77 34.08-34.62L34.08-34.62Q34.42-34.38 35.01-33.98 35.59-33.59 35.59-33.2ZM28.9-24.12L28.9-24.12Q29.25-23.93 29.42-23.61 29.59-23.29 29.93-23.14L29.93-23.14Q30.22-23 30.56-23 30.91-23 31.15-22.9L31.15-22.9Q31.35-22.8 31.44-22.66 31.54-22.51 31.64-22.36L31.64-22.36Q31.93-22.12 32.54-21.92 33.15-21.73 33.35-21.48L33.35-21.48Q33.69-21.04 33.86-20.36 34.03-19.68 34.13-18.92 34.23-18.16 34.27-17.41 34.32-16.65 34.42-16.11L34.42-16.11Q34.52-14.99 34.67-13.89 34.81-12.79 34.81-11.67L34.81-11.67Q34.81-10.55 34.71-9.38 34.62-8.2 34.62-7.08L34.62-7.08Q34.62-6.49 34.59-5.62 34.57-4.74 34.18-4.25L34.18-4.25Q34.13-4.05 34.13-3.56L34.13-3.56 34.13-2Q34.13-1.71 34.18-1.42 34.23-1.12 34.23-0.78L34.23-0.78Q34.23-0.24 33.93 0L33.93 0Q33.79-0.05 33.62-0.05 33.44-0.05 33.3-0.05L33.3-0.05Q32.76-0.05 32.52 0.15L32.52 0.15Q31.98 0.1 31.49 0.05 31 0 30.47 0L30.47 0Q29.64 0 28.66 0.24L28.66 0.24Q28.46-0.24 28.49-0.78 28.51-1.32 28.27-1.76L28.27-1.76Q28.22-1.9 28.2-2.03 28.17-2.15 28.17-2.29L28.17-2.29Q28.32-2.88 28.32-3.1 28.32-3.32 28.32-3.56L28.32-3.56Q28.32-4.25 28.27-4.96 28.22-5.66 28.32-6.35L28.32-6.35Q28.32-6.59 28.39-6.79 28.46-6.98 28.46-7.23L28.46-7.23Q28.46-7.47 28.37-7.57 28.27-7.67 28.27-7.81L28.27-7.81Q28.27-7.96 28.29-8.3 28.32-8.64 28.42-8.74L28.42-8.74Q28.42-9.13 28.44-9.5 28.46-9.86 28.46-10.21L28.46-10.21Q28.46-10.99 28.42-11.77 28.37-12.55 28.37-13.28L28.37-13.28Q28.37-13.62 28.32-13.72 28.27-13.82 28.22-13.87 28.17-13.92 28.07-13.94 27.98-13.96 27.93-14.11L27.93-14.11Q28.12-16.26 27.78-18.41 27.44-20.56 27.44-22.75L27.44-22.75Q27.44-23.1 27.54-23.27 27.63-23.44 27.78-23.54 27.93-23.63 28.05-23.75 28.17-23.88 28.22-24.12L28.22-24.12Q28.61-24.02 28.9-24.12ZM58.93-8.35L58.93-8.35Q59.27-7.91 59.35-7.64 59.42-7.37 59.52-7.1 59.61-6.84 59.69-6.59 59.76-6.35 59.76-6.3L59.76-6.3Q59.76-5.96 59.64-5.74 59.52-5.52 59.27-5.18L59.27-5.18Q57.32-4.44 55.41-3.74 53.51-3.03 51.51-2.34L51.51-2.34Q50.97-2.2 50.53-2.03 50.09-1.86 49.56-1.76L49.56-1.76Q49.46-1.66 49.24-1.59 49.02-1.51 48.73-1.42 48.43-1.32 48.16-1.25 47.9-1.17 47.8-1.17L47.8-1.17Q47.41-1.07 46.94-1.1 46.48-1.12 46.04-1.07L46.04-1.07Q45.8-1.03 45.7-0.83 45.6-0.63 45.48-0.42 45.36-0.2 45.11-0.02 44.87 0.15 44.43 0.15L44.43 0.15Q43.99 0.15 43.55 0.1 43.11 0.05 42.62-0.15L42.62-0.15Q42.52-0.29 42.55-0.51 42.57-0.73 42.48-0.88L42.48-0.88Q42.04-0.93 41.79-0.81 41.55-0.68 41.3-0.63L41.3-0.63Q41.16-0.83 41.08-1.1 41.01-1.37 40.82-1.56L40.82-1.56Q40.77-1.81 40.77-2.05 40.77-2.29 40.77-2.54L40.77-2.54Q40.77-2.88 40.79-3.34 40.82-3.81 40.96-4.05L40.96-4.05Q41.11-6.84 41.11-9.62 41.11-12.4 41.11-15.19L41.11-15.19Q41.11-15.48 41.11-15.94 41.11-16.41 41.08-16.89 41.06-17.38 41.04-17.8 41.01-18.21 40.96-18.41L40.96-18.41Q41.01-18.75 41.01-19.07 41.01-19.38 41.01-19.73L41.01-19.73Q41.01-20.02 41.01-20.26 41.01-20.51 40.91-20.75L40.91-20.75Q40.96-20.95 40.96-21.29L40.96-21.29Q40.96-21.53 40.91-21.78 40.86-22.02 40.86-22.27L40.86-22.27Q40.86-22.66 40.89-23.02 40.91-23.39 40.91-23.78L40.91-23.78Q40.91-25.05 40.79-26.29 40.67-27.54 40.67-28.81L40.67-28.81Q40.67-30.47 40.64-32.13 40.62-33.79 40.57-35.45L40.57-35.45Q40.77-35.94 40.77-36.28L40.77-36.28Q41.45-36.62 41.84-36.52 42.23-36.43 42.62-36.43L42.62-36.43Q42.87-36.43 43.06-36.47 43.26-36.52 43.45-36.62L43.45-36.62Q43.7-36.57 43.87-36.5 44.04-36.43 44.28-36.43L44.28-36.43Q45.01-36.57 45.09-36.47 45.16-36.38 45.31-36.28L45.31-36.28Q45.5-36.33 45.62-36.45 45.75-36.57 45.94-36.57L45.94-36.57Q46.24-36.57 46.38-36.21 46.53-35.84 46.72-35.6L46.72-35.6Q46.72-35.06 46.92-34.62L46.92-34.62Q47.02-32.62 46.99-30.66 46.97-28.71 47.11-26.76L47.11-26.76Q47.16-25.88 47.24-24.93 47.31-23.97 47.31-23.1L47.31-23.1Q47.31-21.63 47.33-20.14 47.36-18.65 47.36-17.14L47.36-17.14Q47.36-16.89 47.38-16.7 47.41-16.5 47.41-16.26L47.41-16.26Q47.41-15.67 47.36-15.14 47.31-14.6 47.31-14.06L47.31-14.06 47.31-10.25Q47.31-9.77 47.29-9.25 47.26-8.74 47.31-8.25L47.31-8.25 47.5-7.67Q48.04-7.86 48.6-8.08 49.16-8.3 49.8-8.4L49.8-8.4Q50.19-8.5 50.53-8.59 50.87-8.69 51.26-8.79L51.26-8.79Q51.95-9.18 52.34-9.33 52.73-9.47 53.12-9.62L53.12-9.62Q53.95-9.91 54.73-10.23 55.51-10.55 56.34-10.84L56.34-10.84Q56.73-10.74 56.98-10.94L56.98-10.94Q57.47-10.84 57.86-10.84L57.86-10.84Q58.39-10.3 58.52-10.01 58.64-9.72 58.88-9.47L58.88-9.47Q58.78-9.23 58.91-9.18 59.03-9.13 59.08-8.94L59.08-8.94Q59.27-8.84 59.13-8.67 58.98-8.5 58.93-8.35ZM70.21-33.2L70.21-33.2Q70.21-32.76 69.91-32.54 69.62-32.32 69.38-31.98L69.38-31.98Q68.89-31.54 68.52-31.08 68.16-30.62 67.67-30.18L67.67-30.18Q67.47-29.98 67.13-29.66 66.79-29.35 66.42-29.03 66.06-28.71 65.69-28.47 65.32-28.22 65.08-28.22L65.08-28.22Q64.69-28.22 64.08-28.49 63.47-28.76 63.03-28.86L63.03-28.86Q62.69-28.91 62.42-28.93 62.15-28.96 61.91-29.2L61.91-29.2Q61.03-29.39 60.78-29.81 60.54-30.22 60.25-30.66L60.25-30.66Q60.25-30.86 60.39-30.91 60.54-30.96 60.64-31.1L60.64-31.1Q61.13-31.74 61.47-32.15 61.81-32.57 62.25-33.01L62.25-33.01Q63.08-33.74 63.84-34.52 64.59-35.3 65.42-35.99L65.42-35.99Q65.81-36.04 66.01-36.28 66.2-36.52 66.59-36.52L66.59-36.52Q66.98-36.52 67.25-36.28 67.52-36.04 67.74-35.72 67.96-35.4 68.18-35.08 68.4-34.77 68.69-34.62L68.69-34.62Q69.04-34.38 69.62-33.98 70.21-33.59 70.21-33.2ZM63.52-24.12L63.52-24.12Q63.86-23.93 64.03-23.61 64.2-23.29 64.54-23.14L64.54-23.14Q64.84-23 65.18-23 65.52-23 65.76-22.9L65.76-22.9Q65.96-22.8 66.06-22.66 66.15-22.51 66.25-22.36L66.25-22.36Q66.55-22.12 67.16-21.92 67.77-21.73 67.96-21.48L67.96-21.48Q68.3-21.04 68.47-20.36 68.64-19.68 68.74-18.92 68.84-18.16 68.89-17.41 68.94-16.65 69.04-16.11L69.04-16.11Q69.13-14.99 69.28-13.89 69.43-12.79 69.43-11.67L69.43-11.67Q69.43-10.55 69.33-9.38 69.23-8.2 69.23-7.08L69.23-7.08Q69.23-6.49 69.21-5.62 69.18-4.74 68.79-4.25L68.79-4.25Q68.74-4.05 68.74-3.56L68.74-3.56 68.74-2Q68.74-1.71 68.79-1.42 68.84-1.12 68.84-0.78L68.84-0.78Q68.84-0.24 68.55 0L68.55 0Q68.4-0.05 68.23-0.05 68.06-0.05 67.91-0.05L67.91-0.05Q67.38-0.05 67.13 0.15L67.13 0.15Q66.59 0.1 66.11 0.05 65.62 0 65.08 0L65.08 0Q64.25 0 63.27 0.24L63.27 0.24Q63.08-0.24 63.1-0.78 63.13-1.32 62.88-1.76L62.88-1.76Q62.83-1.9 62.81-2.03 62.79-2.15 62.79-2.29L62.79-2.29Q62.93-2.88 62.93-3.1 62.93-3.32 62.93-3.56L62.93-3.56Q62.93-4.25 62.88-4.96 62.83-5.66 62.93-6.35L62.93-6.35Q62.93-6.59 63.01-6.79 63.08-6.98 63.08-7.23L63.08-7.23Q63.08-7.47 62.98-7.57 62.88-7.67 62.88-7.81L62.88-7.81Q62.88-7.96 62.91-8.3 62.93-8.64 63.03-8.74L63.03-8.74Q63.03-9.13 63.05-9.5 63.08-9.86 63.08-10.21L63.08-10.21Q63.08-10.99 63.03-11.77 62.98-12.55 62.98-13.28L62.98-13.28Q62.98-13.62 62.93-13.72 62.88-13.82 62.83-13.87 62.79-13.92 62.69-13.94 62.59-13.96 62.54-14.11L62.54-14.11Q62.74-16.26 62.39-18.41 62.05-20.56 62.05-22.75L62.05-22.75Q62.05-23.1 62.15-23.27 62.25-23.44 62.39-23.54 62.54-23.63 62.66-23.75 62.79-23.88 62.83-24.12L62.83-24.12Q63.22-24.02 63.52-24.12ZM96.91-4.69L96.91-4.69Q96.87-3.96 97.23-3.59 97.6-3.22 97.84-2.69L97.84-2.69Q97.74-2 97.99-1.61L97.99-1.61Q97.84-1.32 97.7-0.95 97.55-0.59 97.26-0.34L97.26-0.34Q96.47 0 96.33 0.24 96.18 0.49 95.74 0.49L95.74 0.49Q95.5 0.73 95.2 1 94.91 1.27 94.67 1.51L94.67 1.51Q94.42 1.42 94.33 1.27 94.23 1.12 94.03 0.88L94.03 0.88Q93.54 0.73 93.15 0.37 92.76 0 92.47-0.46 92.18-0.93 91.91-1.44 91.64-1.95 91.45-2.39L91.45-2.39Q90.76-3.66 90.05-4.96 89.35-6.25 88.61-7.52L88.61-7.52Q88.22-8.15 87.86-8.81 87.49-9.47 87.1-10.16L87.1-10.16Q87-10.25 86.9-10.38 86.81-10.5 86.71-10.64L86.71-10.64Q86.37-11.13 86.2-11.74 86.03-12.35 85.49-12.74L85.49-12.74Q84.56-12.84 83.8-12.48 83.05-12.11 82.46-11.52L82.46-11.52Q82.51-11.18 82.51-10.89 82.51-10.6 82.51-10.3L82.51-10.3Q82.51-9.18 82.41-8.15 82.31-7.13 82.31-6.01L82.31-6.01Q82.31-5.52 82.36-5 82.41-4.49 82.51-4L82.51-4Q82.36-3.47 82.36-2.83L82.36-2.83Q82.36-2.49 82.44-2.2 82.51-1.9 82.51-1.56L82.51-1.56Q82.51-1.07 82.19-0.9 81.87-0.73 81.97-0.29L81.97-0.29Q81.39-0.05 80.85 0.2 80.31 0.44 79.73 0.54L79.73 0.54Q79.48 0.59 79.24 0.56 78.99 0.54 78.8 0.63L78.8 0.63Q78.55 0.73 78.41 1 78.26 1.27 78.02 1.27L78.02 1.27Q77.72 1.27 77.68 1.05 77.63 0.83 77.48 0.68L77.48 0.68Q77.24 0.59 77.09 0.59 76.94 0.59 76.8 0.44L76.8 0.44Q76.85 0 76.6-0.22 76.36-0.44 76.36-1.12L76.36-1.12Q76.36-1.66 76.43-2.15 76.5-2.64 76.5-3.17L76.5-3.17Q76.5-3.61 76.38-3.98 76.26-4.35 76.16-4.79L76.16-4.79Q76.11-4.98 76.16-5.18 76.21-5.37 76.21-5.57L76.21-5.57Q76.21-6.45 76.14-7.35 76.06-8.25 76.06-9.13L76.06-9.13Q76.06-9.47 76.06-9.77 76.06-10.06 76.11-10.35L76.11-10.35Q76.21-10.64 76.28-10.84 76.36-11.04 76.36-11.33L76.36-11.33Q76.36-12.26 76.16-13.16 75.97-14.06 75.97-14.94L75.97-14.94Q75.97-15.43 75.99-15.94 76.02-16.46 76.02-16.94L76.02-16.94Q76.02-18.36 75.97-19.73 75.92-21.09 75.92-22.46L75.92-22.46Q75.92-23.44 75.97-24.39 76.02-25.34 76.02-26.32L76.02-26.32Q76.02-27.54 75.92-28.74 75.82-29.93 75.82-31.2L75.82-31.2Q75.82-31.64 75.77-31.79 75.72-31.93 75.62-31.96 75.53-31.98 75.41-32.01 75.28-32.03 75.19-32.18L75.19-32.18Q75.19-32.47 75.43-32.59 75.67-32.71 75.67-33.4L75.67-33.4Q75.67-33.79 75.6-34.18 75.53-34.57 75.53-34.96L75.53-34.96Q75.53-35.55 75.77-36.13 76.02-36.72 76.21-37.26L76.21-37.26Q76.8-37.3 77.02-37.26 77.24-37.21 77.48-37.3L77.48-37.3Q77.63-36.77 78.12-36.74 78.6-36.72 78.99-36.62L78.99-36.62Q79.43-36.57 79.85-36.4 80.26-36.23 80.65-36.23L80.65-36.23Q80.75-35.94 81.07-35.82 81.39-35.69 81.73-35.6L81.73-35.6Q82.12-35.64 82.34-35.94 82.56-36.23 82.95-36.23L82.95-36.23Q83.24-36.23 83.63-35.82 84.02-35.4 84.22-35.16L84.22-35.16Q84.41-35.01 84.95-34.52 85.49-34.03 86.12-33.52 86.76-33.01 87.29-32.54 87.83-32.08 87.98-32.03L87.98-32.03Q89.98-30.03 91.71-28.39 93.45-26.76 95.5-25.44L95.5-25.44Q95.55-25.29 95.62-25.2 95.69-25.1 95.79-24.95L95.79-24.95Q95.79-24.56 95.64-24.37 95.5-24.17 95.5-23.88L95.5-23.88Q95.5-23.73 95.57-23.58 95.64-23.44 95.64-23.29L95.64-23.29Q95.69-23.1 95.67-22.92 95.64-22.75 95.64-22.56L95.64-22.56Q95.64-22.07 95.96-21.68 96.28-21.29 96.28-20.8L96.28-20.8Q96.18-20.36 95.89-20.26 95.6-20.17 95.4-20.02L95.4-20.02Q95.3-19.92 95.23-19.78 95.16-19.63 95.06-19.53L95.06-19.53Q93.98-19.04 93.5-18.63 93.01-18.21 92.47-17.82L92.47-17.82Q92.32-17.72 91.98-17.5 91.64-17.29 91.3-17.07 90.96-16.85 90.69-16.6 90.42-16.36 90.42-16.21L90.42-16.21Q90.42-15.87 90.83-15.26 91.25-14.65 91.45-14.31L91.45-14.31Q91.98-13.43 92.42-12.57 92.86-11.72 93.4-10.89L93.4-10.89Q94.37-9.38 95.23-7.81 96.08-6.25 96.91-4.69ZM88.95-22.85L88.95-22.85Q87.83-24.27 86.54-25.42 85.24-26.56 84.07-27.83L84.07-27.83 83.53-27.93Q83.24-28.42 82.88-28.78 82.51-29.15 82.12-29.54L82.12-29.54Q82.17-29 82.17-28.52 82.17-28.03 82.17-27.49L82.17-27.49Q82.17-25.93 82.09-24.44 82.02-22.95 82.02-21.44L82.02-21.44Q82.02-19.92 82.17-18.55L82.17-18.55Q83.19-18.55 84.02-19.14L84.02-19.14Q84.37-19.38 84.66-19.65 84.95-19.92 85.29-20.17L85.29-20.17Q85.68-20.41 86.2-20.75 86.71-21.09 87.22-21.44 87.73-21.78 88.2-22.14 88.66-22.51 88.95-22.85ZM108.43-33.2L108.43-33.2Q108.43-32.76 108.14-32.54 107.85-32.32 107.6-31.98L107.6-31.98Q107.12-31.54 106.75-31.08 106.38-30.62 105.9-30.18L105.9-30.18Q105.7-29.98 105.36-29.66 105.02-29.35 104.65-29.03 104.28-28.71 103.92-28.47 103.55-28.22 103.31-28.22L103.31-28.22Q102.92-28.22 102.31-28.49 101.7-28.76 101.26-28.86L101.26-28.86Q100.92-28.91 100.65-28.93 100.38-28.96 100.13-29.2L100.13-29.2Q99.26-29.39 99.01-29.81 98.77-30.22 98.47-30.66L98.47-30.66Q98.47-30.86 98.62-30.91 98.77-30.96 98.86-31.1L98.86-31.1Q99.35-31.74 99.69-32.15 100.04-32.57 100.48-33.01L100.48-33.01Q101.31-33.74 102.06-34.52 102.82-35.3 103.65-35.99L103.65-35.99Q104.04-36.04 104.24-36.28 104.43-36.52 104.82-36.52L104.82-36.52Q105.21-36.52 105.48-36.28 105.75-36.04 105.97-35.72 106.19-35.4 106.41-35.08 106.63-34.77 106.92-34.62L106.92-34.62Q107.26-34.38 107.85-33.98 108.43-33.59 108.43-33.2ZM101.75-24.12L101.75-24.12Q102.09-23.93 102.26-23.61 102.43-23.29 102.77-23.14L102.77-23.14Q103.06-23 103.41-23 103.75-23 103.99-22.9L103.99-22.9Q104.19-22.8 104.28-22.66 104.38-22.51 104.48-22.36L104.48-22.36Q104.77-22.12 105.38-21.92 105.99-21.73 106.19-21.48L106.19-21.48Q106.53-21.04 106.7-20.36 106.87-19.68 106.97-18.92 107.07-18.16 107.12-17.41 107.17-16.65 107.26-16.11L107.26-16.11Q107.36-14.99 107.51-13.89 107.65-12.79 107.65-11.67L107.65-11.67Q107.65-10.55 107.56-9.38 107.46-8.2 107.46-7.08L107.46-7.08Q107.46-6.49 107.43-5.62 107.41-4.74 107.02-4.25L107.02-4.25Q106.97-4.05 106.97-3.56L106.97-3.56 106.97-2Q106.97-1.71 107.02-1.42 107.07-1.12 107.07-0.78L107.07-0.78Q107.07-0.24 106.77 0L106.77 0Q106.63-0.05 106.46-0.05 106.29-0.05 106.14-0.05L106.14-0.05Q105.6-0.05 105.36 0.15L105.36 0.15Q104.82 0.1 104.33 0.05 103.84 0 103.31 0L103.31 0Q102.48 0 101.5 0.24L101.5 0.24Q101.31-0.24 101.33-0.78 101.35-1.32 101.11-1.76L101.11-1.76Q101.06-1.9 101.04-2.03 101.01-2.15 101.01-2.29L101.01-2.29Q101.16-2.88 101.16-3.1 101.16-3.32 101.16-3.56L101.16-3.56Q101.16-4.25 101.11-4.96 101.06-5.66 101.16-6.35L101.16-6.35Q101.16-6.59 101.23-6.79 101.31-6.98 101.31-7.23L101.31-7.23Q101.31-7.47 101.21-7.57 101.11-7.67 101.11-7.81L101.11-7.81Q101.11-7.96 101.13-8.3 101.16-8.64 101.26-8.74L101.26-8.74Q101.26-9.13 101.28-9.5 101.31-9.86 101.31-10.21L101.31-10.21Q101.31-10.99 101.26-11.77 101.21-12.55 101.21-13.28L101.21-13.28Q101.21-13.62 101.16-13.72 101.11-13.82 101.06-13.87 101.01-13.92 100.92-13.94 100.82-13.96 100.77-14.11L100.77-14.11Q100.96-16.26 100.62-18.41 100.28-20.56 100.28-22.75L100.28-22.75Q100.28-23.1 100.38-23.27 100.48-23.44 100.62-23.54 100.77-23.63 100.89-23.75 101.01-23.88 101.06-24.12L101.06-24.12Q101.45-24.02 101.75-24.12ZM147.35-0.15L147.35-0.15Q147.1 0.1 146.81 0.15 146.52 0.2 146.23 0.2L146.23 0.2Q145.49 0.54 144.66 0.54L144.66 0.54Q144.13 0.24 144.08 0.34 144.03 0.44 143.88 0.54L143.88 0.54Q143.15 0.88 142.56 0.9 141.98 0.93 141.59 1.17L141.59 1.17Q141.2 0.88 141.17 0.32 141.15-0.24 141.05-0.63L141.05-0.63Q140.81-0.98 140.71-1.49 140.61-2 140.56-2.54 140.51-3.08 140.44-3.59 140.37-4.1 140.17-4.49L140.17-4.49Q140.12-4.74 140.15-4.93 140.17-5.13 140.07-5.37L140.07-5.37Q140.12-6.2 140.02-6.69 139.93-7.18 139.83-7.71L139.83-7.71Q139.78-8.01 139.78-8.37 139.78-8.74 139.49-8.94L139.49-8.94Q139.63-9.62 139.54-9.96 139.44-10.3 139.39-10.6L139.39-10.6Q139.34-10.99 139.34-11.45 139.34-11.91 139.24-12.3L139.24-12.3Q138.95-14.65 138.61-16.99 138.27-19.34 137.97-21.68L137.97-21.68Q137.68-21.44 137.56-20.95 137.44-20.46 137.34-20.07L137.34-20.07Q137.05-19.19 136.8-18.26 136.56-17.33 136.31-16.46L136.31-16.46Q136.22-16.06 136.14-15.55 136.07-15.04 135.92-14.65L135.92-14.65Q135.43-13.23 135.07-12.21 134.7-11.18 134.36-10.11L134.36-10.11Q134.26-9.52 134.16-8.98 134.07-8.45 133.97-7.91L133.97-7.91Q133.92-7.62 133.82-7.08 133.73-6.54 133.63-6.3L133.63-6.3Q133.53-6.05 133.46-5.96 133.38-5.86 133.43-5.62L133.43-5.62Q132.94-4.88 132.77-4 132.6-3.13 132.16-2.29L132.16-2.29Q132.16-1.71 131.72-1.27L131.72-1.27Q131.48-1.22 131.26-1.17 131.04-1.12 130.8-0.98L130.8-0.98Q130.55-1.07 130.23-1.1 129.92-1.12 129.62-1.12L129.62-1.12Q129.38-1.17 129.18-1.29 128.99-1.42 128.74-1.46L128.74-1.46Q128.5-1.76 128.21-1.98 127.91-2.2 127.62-2.44L127.62-2.44Q127.33-3.17 127.08-3.42L127.08-3.42Q126.94-3.96 126.69-4.42 126.45-4.88 126.35-5.47L126.35-5.47Q126.21-6.01 125.99-6.47 125.77-6.93 125.52-7.47L125.52-7.47Q125.42-7.81 125.3-8.13 125.18-8.45 125.03-8.79L125.03-8.79Q124.99-9.18 124.77-9.77 124.55-10.35 124.45-10.79L124.45-10.79Q124.45-10.84 124.28-11.3 124.11-11.77 123.94-12.3 123.76-12.84 123.59-13.28 123.42-13.72 123.37-13.77L123.37-13.77Q123.28-14.01 123.2-14.23 123.13-14.45 123.03-14.75L123.03-14.75Q122.84-15.38 122.54-16.04 122.25-16.7 121.96-17.29L121.96-17.29Q121.71-17.77 121.62-18.24 121.52-18.7 121.37-19.14L121.37-19.14Q121.27-19.38 121.2-19.58 121.13-19.78 121.03-20.02L121.03-20.02Q120.93-20.31 120.83-20.63 120.74-20.95 120.64-21.29L120.64-21.29Q120.4-21.19 120.42-20.87 120.44-20.56 120.4-20.31L120.4-20.31Q120.3-19.78 120.3-19.26 120.3-18.75 120.25-18.21L120.25-18.21Q120.15-17.63 120.05-17.09 119.96-16.55 119.91-16.02L119.91-16.02Q119.91-14.7 119.76-13.38L119.76-13.38Q119.66-12.21 119.52-11.01 119.37-9.81 119.32-8.54L119.32-8.54Q119.32-7.62 119.13-6.71 118.93-5.81 119.03-4.83L119.03-4.83Q118.93-4.64 118.93-4.54 118.93-4.44 118.93-4.25L118.93-4.25Q118.93-4 118.91-3.71 118.88-3.42 118.88-3.17L118.88-3.17Q118.88-2.73 118.98-2.59L118.98-2.59Q118.83-2.15 118.83-1.64 118.83-1.12 118.83-0.63L118.83-0.63Q118.74-0.44 118.71-0.24 118.69-0.05 118.54 0.15L118.54 0.15Q118.59 0.98 118.05 0.98L118.05 0.98Q117.9 0.98 117.73 0.9 117.56 0.83 117.47 0.68L117.47 0.68Q116.93 0.73 116.86 0.44 116.78 0.15 116.54 0.2L116.54 0.2Q115.95 0.44 115.88 0.34 115.81 0.24 115.56 0.29L115.56 0.29Q115.17-0.1 115.05-0.05 114.93 0 114.83 0L114.83 0Q114.39-0.15 114.34-0.07 114.29 0 114.15 0L114.15 0Q113.9-0.24 113.49-0.24 113.07-0.24 112.78-0.29L112.78-0.29Q112.73-0.49 112.7-0.66 112.68-0.83 112.68-1.07L112.68-1.07Q112.68-1.37 112.7-1.64 112.73-1.9 112.73-2.2L112.73-2.2Q112.73-2.44 112.7-2.71 112.68-2.98 112.68-3.32L112.68-3.32Q112.68-3.66 112.73-3.98 112.78-4.3 112.78-4.69L112.78-4.69Q112.78-4.83 112.73-4.96 112.68-5.08 112.68-5.27L112.68-5.27Q112.97-5.91 112.95-6.27 112.92-6.64 112.97-6.98L112.97-6.98Q113.07-7.81 113.14-8.62 113.22-9.42 113.32-10.25L113.32-10.25Q113.32-11.62 113.39-12.52 113.46-13.43 113.61-14.36L113.61-14.36Q113.71-14.79 113.78-15.19 113.85-15.58 113.95-16.02L113.95-16.02Q114.05-16.75 114.07-17.55 114.1-18.36 114.19-19.14L114.19-19.14Q114.29-20.36 114.44-21.56 114.58-22.75 114.68-23.93L114.68-23.93Q114.78-24.85 114.9-25.76 115.02-26.66 115.02-27.49L115.02-27.49Q115.02-27.93 115.15-28.61 115.27-29.3 115.32-29.79L115.32-29.79Q115.41-30.96 115.49-32.08 115.56-33.2 115.56-34.33L115.56-34.33 115.56-34.86Q115.56-34.96 115.66-35.06 115.76-35.16 115.76-35.4L115.76-35.4Q115.76-35.84 115.98-36.01 116.2-36.18 116.34-36.57L116.34-36.57Q116.59-36.57 116.9-36.52 117.22-36.47 117.37-36.23L117.37-36.23Q117.71-36.33 118.05-36.33 118.39-36.33 118.64-36.57L118.64-36.57Q118.93-36.57 119.08-36.43 119.22-36.28 119.47-36.18L119.47-36.18Q119.66-36.28 119.86-36.35 120.05-36.43 120.25-36.52L120.25-36.52Q120.4-36.43 120.47-36.3 120.54-36.18 120.69-36.13L120.69-36.13Q121.42-36.33 121.66-36.18L121.66-36.18Q121.76-35.99 121.79-35.79 121.81-35.6 121.86-35.4L121.86-35.4Q122.35-34.91 122.49-34.3 122.64-33.69 123.03-33.2L123.03-33.2Q123.13-32.91 123.25-32.62 123.37-32.32 123.47-31.93L123.47-31.93 123.62-31.35Q123.81-30.86 124.11-30.18L124.11-30.18Q124.35-29.25 124.55-28.27 124.74-27.29 125.18-26.46L125.18-26.46Q125.23-26.17 125.35-25.76 125.47-25.34 125.57-25.05L125.57-25.05Q125.91-24.22 126.28-23.41 126.65-22.61 126.94-21.68L126.94-21.68Q127.23-20.75 127.45-19.78 127.67-18.8 128.01-17.87L128.01-17.87Q128.31-16.99 128.45-16.6 128.6-16.21 128.84-15.82L128.84-15.82Q128.84-15.67 128.92-15.33 128.99-14.99 129.14-14.62 129.28-14.26 129.43-13.94 129.57-13.62 129.72-13.57L129.72-13.57Q129.87-13.67 129.89-13.87 129.92-14.06 130.06-14.21L130.06-14.21Q130.11-14.75 130.23-15.53 130.36-16.31 130.6-16.8L130.6-16.8Q130.6-17.04 130.72-17.7 130.84-18.36 131.04-19.12 131.24-19.87 131.41-20.51 131.58-21.14 131.72-21.29L131.72-21.29Q131.82-21.92 131.89-22.07 131.97-22.22 132.07-22.31L132.07-22.31Q132.11-22.71 132.26-23.05 132.41-23.39 132.46-23.78L132.46-23.78Q132.55-24.61 132.7-25.15 132.85-25.68 133.09-26.46L133.09-26.46Q133.29-27.15 133.46-27.86 133.63-28.56 133.87-29.25L133.87-29.25Q134.46-31.1 134.92-32.54 135.39-33.98 136.07-35.35L136.07-35.35Q136.22-35.79 136.31-35.89 136.41-35.99 136.51-36.08L136.51-36.08Q136.9-36.23 137.31-36.23 137.73-36.23 138.17-36.18L138.17-36.18Q138.66-36.38 138.9-36.62L138.9-36.62Q139.1-36.38 139.49-36.38L139.49-36.38Q139.98-36.38 140.17-36.67L140.17-36.67Q140.37-36.57 140.49-36.62 140.61-36.67 140.85-36.57L140.85-36.57Q140.95-36.67 141.1-36.79 141.24-36.91 141.39-36.91L141.39-36.91Q141.78-36.43 142-36.16 142.22-35.89 142.32-35.55L142.32-35.55Q142.47-35.11 142.49-34.59 142.51-34.08 142.76-33.64L142.76-33.64Q142.71-33.01 142.83-31.71 142.95-30.42 143.12-28.98 143.3-27.54 143.49-26.32 143.69-25.1 143.83-24.8L143.83-24.8Q143.78-24.17 143.88-23.73 143.98-23.29 143.98-22.85L143.98-22.85Q143.98-22.71 144.03-22.24 144.08-21.78 144.13-21.26 144.17-20.75 144.25-20.29 144.32-19.82 144.37-19.63L144.37-19.63Q144.37-18.75 144.66-18.26L144.66-18.26Q144.91-17.04 145.08-15.82 145.25-14.6 145.4-13.33L145.4-13.33Q145.49-12.7 145.52-12.11 145.54-11.52 145.64-10.89L145.64-10.89Q145.69-10.64 145.76-10.4 145.83-10.16 145.88-9.91L145.88-9.91Q145.98-9.42 146.03-8.98 146.08-8.54 146.18-8.11L146.18-8.11Q146.23-7.86 146.32-7.59 146.42-7.32 146.32-7.03L146.32-7.03Q146.42-6.69 146.4-6.3 146.37-5.91 146.57-5.62L146.57-5.62Q146.57-4.59 146.71-3.81L146.71-3.81Q146.76-3.22 147.01-2.64L147.01-2.64Q147.1-2.05 147.18-1.42 147.25-0.78 147.35-0.15Z" opacity="1" transform="matrix(1,0,0,1,0,0)" fill="#ffffff" class="undefined-text-0" data-fill-palette-color="quaternary" id="text-0"></path></svg></g></svg></g></svg></g></svg></g><g transform="matrix(1,0,0,1,70.46968149444578,0)"><svg viewBox="0 0 72.21907823826557 79.59871073891411" height="79.59871073891411" width="72.21907823826557"><g><svg xmlns="http://www.w3.org/2000/svg" xmlns:xlink="http://www.w3.org/1999/xlink" version="1.1" x="0" y="0" viewBox="5.359000205993652 0.9212803840637207 89.04205322265625 98.1407241821289" enable-background="new 0 0 100 100" xml:space="preserve" height="79.59871073891411" width="72.21907823826557" class="icon-icon-0" data-fill-palette-color="quaternary" id="icon-0"><g fill="#ffffff" data-fill-palette-color="quaternary"><path d="M94.078 41.762c1.787-13.531-3.702-29.744-19.914-37.02C61.345-1.011 38.719-1.001 26.785 9.878c-10.408 9.49-12.754 22.959-12.754 22.959s-1.074 5.004-1.074 6.665c0 1.588 1.788 2.213 1.583 3.029-0.204 0.816-2.207 3.151-3.738 5.703-1.53 2.551-5.443 8.222-5.443 9.752s0.916 2.097 2.753 2.709c1.836 0.612 3.265 1.122 3.571 1.836s-0.875 2.754-0.938 4.209c-0.054 1.241 0.4 1.379 1.33 1.74 1.153 0.449 2.923 0.507 2.923 0.507s-3.943 0.745-3.551 2.359c0.406 1.675 2.781 2.015 2.992 3.327 0.105 0.662-2.008 4.053-1.73 7.354 0.363 4.308 4.444 6.236 10.914 5.198 6.167-0.99 9.067-1.91 9.86 1.491 0.499 2.141 0.446 5.753 1.364 9.836 0.038 0.163 0.077 0.338 0.114 0.51h47.327c-2.024-3.689-4.685-9.61-4.685-17.144 0-5.169 0.514-12.842 4.221-16.923C86.471 59.879 92.643 52.634 94.078 41.762zM74.537 52.486c0 0-0.619 6.769-5.588 7.639-4.255 0.744-7.08-3.354-7.08-3.354l-1.398 6.613h-2.979c0 0-2.701-9.966-4.564-11.644-1.864-1.677-4.752-2.142-4.752-2.142s-3.912-0.28-6.428-2.794c-2.515-2.516-0.186-5.59-0.186-5.59s-3.167 0.187-9.595-1.21c-6.427-1.398-4.471-5.497-4.471-5.497s-1.677 0.28-3.074-1.49c-0.993-1.258-1.717-4.335 0.093-7.918 1.622-3.209 4.469-4.323 4.469-4.323s-1.054-1.338 1.169-3.207c1.161-0.976 3.211-0.947 3.211-0.947s0.501-2.151 3.587-3.546c3.496-1.579 5.822-0.273 5.822-0.273s0.934-2.046 3.635-2.978c2.702-0.931 5.4 0.649 5.4 0.649s1.828-1.653 5.182-1.653c3.353 0 4.601 1.747 4.601 1.747s2.02-1.038 4.471-0.187c2.316 0.805 2.986 3.05 2.986 3.05s1.673-1.187 4-0.255c2.329 0.932 3.262 3.447 3.262 3.447s1.605-0.235 3.202 1.183c1.185 1.054 0.802 3.009 0.802 3.009s1.976 0.656 3.158 3.021c1.101 2.201-0.456 4.059-0.456 4.059s3.26 2.422 3.726 8.756c0.568 7.728-4.377 9.222-4.377 9.222s0.978 2.452-0.746 5.123C79.273 54.631 74.537 52.486 74.537 52.486z" fill="#ffffff" data-fill-palette-color="quaternary"></path></g></svg></g></svg></g><g></g></svg></g></svg></g></svg></g></svg></g><defs></defs></svg><rect width="342.85155851775386" height="342.85155851775386" fill="none" stroke="none" visibility="hidden"></rect></g></svg></g></svg>