<?xml version='1.0' encoding='utf-8'?>
<svg xmlns:xlink="http://www.w3.org/1999/xlink" xmlns="http://www.w3.org/2000/svg" version="1.1" id="Layer_1" x="0px" y="0px" viewBox="0 0 811.8 1060.1" enable-background="new 0 0 811.8 1060.1"> <g> <defs> <rect id="SVGID_1_" x="0" y="0" width="812.9" height="1060"/> </defs> <clipPath id="SVGID_2_"> <use xlink:href="#SVGID_1_" overflow="visible"/> </clipPath> <rect x="0" y="0" clip-path="url(#SVGID_2_)" fill="#43B4E7" width="812.9" height="1060"/> <g clip-path="url(#SVGID_2_)"> <polygon fill="#514D9E" points="311.9,797.8 492.9,443.8 703.9,868.8 "/> <polygon fill="#37346B" points="492.9,443.8 775.9,815.8 703.9,868.8 "/> <polygon fill="#E6E7E8" points="410.9,604.3 442.9,575.8 453.9,598.8 475.9,525.8 507.9,590.8 526.9,533.8 553.1,565.1 492.9,443.8 "/> <polygon fill="#BCBEC0" points="608.9,596.3 564.9,556.8 554.9,566.8 492.9,443.8 "/> </g> <g clip-path="url(#SVGID_2_)"> <polygon fill="#514D9E" points="205.9,728.8 322.9,501.8 484.9,815.8 198.9,791.8 "/> <polygon fill="#37346B" points="322.9,501.8 532.9,746.8 484.9,815.8 "/> <polygon fill="#E6E7E8" points="255.3,633 280.9,612.8 304.9,658.8 341.9,582.8 384.3,620.8 322.9,501.8 "/> <polygon fill="#D1D3D4" points="322.9,501.8 413.3,607.2 379.9,589.8 384.3,620.8 "/> </g> <radialGradient id="SVGID_3_" cx="122.9231" cy="986.8264" r="396.0202" gradientTransform="matrix(1 0 0 0.8383 0 159.5293)" gradientUnits="userSpaceOnUse"> <stop offset="0" style="stop-color:#009444"/> <stop offset="1" style="stop-color:#8DC63F"/> </radialGradient> <path clip-path="url(#SVGID_2_)" fill="url(#SVGID_3_)" d="M522.9,986.8c0,150.2-179.1,272-400,272s-400-121.8-400-272 s179.1-272,400-272c4.6,0,9.2,0,13.8,0.2c17.3,0.4,34.4,1.5,51.1,3.4c14.3,1.6,28.3,3.7,42,6.3c12.9,2.4,25.5,5.3,37.8,8.5 C417,772.6,522.9,871.3,522.9,986.8z"/> <radialGradient id="SVGID_4_" cx="794.9231" cy="1070.0571" r="640.026" gradientTransform="matrix(1 0 0 0.5941 0 434.3507)" gradientUnits="userSpaceOnUse"> <stop offset="0" style="stop-color:#009444"/> <stop offset="1" style="stop-color:#8DC63F"/> </radialGradient> <ellipse clip-path="url(#SVGID_2_)" fill="url(#SVGID_4_)" cx="794.9" cy="1070.1" rx="644" ry="355.8"/> <path clip-path="url(#SVGID_2_)" fill="#BFD685" d="M187.4,872.8l-100.5-4c0,0,24.8-99.7,101-150.4c14.3,1.6,28.3,3.7,42,6.3 c12.9,2.4,25.5,5.3,37.8,8.5C237.8,753.9,185.6,800.6,187.4,872.8z"/> <radialGradient id="SVGID_5_" cx="198.9231" cy="1188.8264" r="530.0339" gradientTransform="matrix(1 0 0 0.6566 0 408.2885)" gradientUnits="userSpaceOnUse"> <stop offset="0" style="stop-color:#009444"/> <stop offset="1" style="stop-color:#8DC63F"/> </radialGradient> <path clip-path="url(#SVGID_2_)" fill="url(#SVGID_5_)" d="M730.9,1188.8c0,190-238.2,344-532,344s-532-154-532-344 c0-183.8,223-334,503.6-343.5c9.4-0.3,18.9-0.5,28.4-0.5c22.6,0,44.8,0.9,66.6,2.7C527.9,868.7,730.9,1013.4,730.9,1188.8z"/> <path clip-path="url(#SVGID_2_)" fill="#CAD989" d="M232.9,1060.1c0,0,30.9-145-62.4-214.7c9.4-0.3,18.9-0.5,28.4-0.5 c22.6,0,44.8,0.9,66.6,2.7c25.1,24.5,59.5,66.9,98.4,139.3L232.9,1060.1z"/> <radialGradient id="SVGID_6_" cx="770.9231" cy="1224.8264" r="682.0264" gradientTransform="matrix(1 0 0 0.566 0 531.623)" gradientUnits="userSpaceOnUse"> <stop offset="0" style="stop-color:#009444"/> <stop offset="1" style="stop-color:#8DC63F"/> </radialGradient> <path clip-path="url(#SVGID_2_)" fill="url(#SVGID_6_)" d="M1454.9,1224.8c0,209.9-306.2,380-684,380s-684-170.1-684-380 c0-163.1,184.9-302.1,444.5-356c47-9.8,96.5-16.7,147.7-20.6c30-2.3,60.6-3.4,91.8-3.4C1148.7,844.8,1454.9,1015,1454.9,1224.8z"/> <path clip-path="url(#SVGID_2_)" fill="#D3E390" d="M598.9,1163.8l-214,30c0,0,34.3-183.7,146.5-325c47-9.8,96.5-16.7,147.7-20.6 C641.3,892.9,575.7,997.1,598.9,1163.8z"/> <g clip-path="url(#SVGID_2_)"> <path opacity="0.45" fill="#FBF499" d="M303.4,187.4c0,3-20.4,4.7-20.8,7.5c-0.4,2.9,19.1,9.4,18.4,12.2c-0.7,2.9-20.9-0.4-22,2.3 c-1,2.7,16.2,13.7,14.9,16.3c-1.4,2.6-20.2-5.4-21.9-3c-1.7,2.4,12.5,17.2,10.6,19.4c-1.9,2.2-18.3-10.1-20.5-8.2 c-2.2,1.9,8,19.7,5.6,21.3c-2.4,1.7-15.4-14.2-18-12.8c-2.6,1.4,3.1,21,0.4,22.1c-2.7,1-11.5-17.5-14.4-16.8 c-2.8,0.7-2,21.2-5,21.5c-2.9,0.3-7-19.7-9.9-19.7c-3,0-7.1,20.1-9.9,19.7c-2.9-0.4-2.2-20.8-5-21.5c-2.9-0.7-11.7,17.8-14.4,16.8 c-2.7-1,2.9-20.7,0.4-22.1c-2.6-1.4-15.6,14.5-18,12.8c-2.4-1.7,7.8-19.4,5.6-21.3c-2.2-1.9-18.6,10.3-20.5,8.2 c-1.9-2.2,12.2-17,10.6-19.4c-1.7-2.4-20.5,5.6-21.9,3c-1.4-2.6,15.9-13.6,14.9-16.3c-1-2.7-21.3,0.5-22-2.3 c-0.7-2.8,18.7-9.3,18.4-12.2c-0.3-2.9-20.8-4.6-20.8-7.5c0-3,20.4-4.7,20.8-7.5c0.4-2.9-19.1-9.4-18.4-12.2 c0.7-2.9,20.9,0.4,22-2.3c1-2.7-16.2-13.7-14.9-16.3c1.4-2.6,20.2,5.4,21.9,3c1.7-2.4-12.5-17.2-10.6-19.4 c1.9-2.2,18.3,10.1,20.5,8.2c2.2-1.9-8-19.7-5.6-21.3c2.4-1.7,15.4,14.2,18,12.8c2.6-1.4-3.1-21-0.4-22.1 c2.7-1,11.5,17.5,14.4,16.8c2.8-0.7,2-21.2,5-21.5c2.9-0.3,7,19.7,9.9,19.7c3,0,7.1-20.1,9.9-19.7c2.9,0.4,2.2,20.8,5,21.5 c2.9,0.7,11.7-17.8,14.4-16.8c2.7,1-2.9,20.7-0.4,22.1c2.6,1.4,15.6-14.5,18-12.8c2.4,1.7-7.8,19.4-5.6,21.3 c2.2,1.9,18.6-10.3,20.5-8.2c1.9,2.2-12.2,17-10.6,19.4c1.7,2.4,20.5-5.6,21.9-3c1.4,2.6-15.9,13.6-14.9,16.3 c1,2.7,21.3-0.5,22,2.3c0.7,2.8-18.7,9.3-18.4,12.2C283,182.8,303.4,184.5,303.4,187.4z"/> <circle fill="#FBF499" cx="220.8" cy="187.4" r="42.4"/> </g> <path opacity="0.5" clip-path="url(#SVGID_2_)" fill="#F1F2F2" d="M-116.5,427.8h342c0,0-30.5-39.7-92.7-33.6c0,0-44.4-49.1-92-0.6 c0,0-39.7-36.2-82.8-21.4c0,0-42.1-52.6-74.6-3.6V427.8z"/> <path opacity="0.5" clip-path="url(#SVGID_2_)" fill="#F1F2F2" d="M892.9,373.2h-342c0,0,30.5-39.7,92.7-33.6c0,0,44.4-49.1,92-0.6 c0,0,39.7-36.2,82.8-21.4c0,0,42.1-52.6,74.6-3.6V373.2z"/> <g clip-path="url(#SVGID_2_)"> <ellipse opacity="0.25" fill="#231F20" cx="25.1" cy="734.2" rx="25.1" ry="7.3"/> <rect x="25.1" y="707.3" fill="#814D1F" width="4.9" height="26.9"/> <rect x="20.2" y="707.3" fill="#AA6628" width="4.9" height="26.9"/> <polygon fill="#288B43" points="31.1,683.5 25.1,707.3 2.4,707.3 8.2,690.4 0,690.4 10.1,667.4 2.4,667.4 14.7,647.3 10.1,644.5 25.1,618.9 29.8,640.1 27.5,646.9 29.8,663.1 27.5,672.3 "/> <polygon fill="#23793C" points="42,690.4 47.8,707.3 25.1,707.3 31.1,683.5 27.5,672.3 29.8,663.1 27.5,646.9 29.8,640.1 25.1,618.9 40.1,644.5 35.5,647.3 47.8,667.4 40.1,667.4 50.2,690.4 "/> </g> <g clip-path="url(#SVGID_2_)"> <ellipse opacity="0.25" fill="#231F20" cx="125.3" cy="728.7" rx="25.1" ry="7.3"/> <rect x="125.3" y="701.8" fill="#814D1F" width="4.9" height="26.9"/> <rect x="120.4" y="701.8" fill="#AA6628" width="4.9" height="26.9"/> <polygon fill="#288B43" points="131.3,678.1 125.3,701.8 102.6,701.8 108.4,684.9 100.2,684.9 110.3,662 102.6,662 114.9,641.8 110.3,639 125.3,613.4 130,634.7 127.6,641.4 130,657.6 127.6,666.8 "/> <polygon fill="#23793C" points="142.2,684.9 148,701.8 125.3,701.8 131.3,678.1 127.6,666.8 130,657.6 127.6,641.4 130,634.7 125.3,613.4 140.3,639 135.7,641.8 148,662 140.3,662 150.4,684.9 "/> </g> <g clip-path="url(#SVGID_2_)"> <ellipse opacity="0.25" fill="#231F20" cx="738.6" cy="727.1" rx="32" ry="7.7"/> <rect x="738.6" y="698.8" fill="#814D1F" width="6.3" height="28.3"/> <rect x="732.4" y="698.8" fill="#AA6628" width="6.3" height="28.3"/> <polygon fill="#288B43" points="746.3,673.8 738.6,698.8 709.8,698.8 717.1,681 706.7,681 719.5,656.8 709.8,656.8 725.4,635.6 719.5,632.7 738.6,605.7 744.7,628.1 741.6,635.2 744.7,652.2 741.6,661.9 "/> <polygon fill="#23793C" points="760.2,681 767.5,698.8 738.6,698.8 746.3,673.8 741.6,661.9 744.7,652.2 741.6,635.2 744.7,628.1 738.6,605.7 757.8,632.7 751.8,635.6 767.5,656.8 757.8,656.8 770.6,681 "/> </g> <g clip-path="url(#SVGID_2_)"> <ellipse opacity="0.25" fill="#231F20" cx="177.8" cy="920.3" rx="30.3" ry="8.8"/> <rect x="177.8" y="887.9" fill="#814D1F" width="5.9" height="32.4"/> <rect x="171.8" y="887.9" fill="#AA6628" width="5.9" height="32.4"/> <polygon fill="#288B43" points="185,859.2 177.8,887.9 150.4,887.9 157.3,867.4 147.5,867.4 159.6,839.8 150.4,839.8 165.2,815.4 159.6,812.1 177.8,781.1 183.5,806.8 180.6,814.9 183.5,834.5 180.6,845.6 "/> <polygon fill="#23793C" points="198.2,867.4 205.1,887.9 177.8,887.9 185,859.2 180.6,845.6 183.5,834.5 180.6,814.9 183.5,806.8 177.8,781.1 195.9,812.1 190.3,815.4 205.1,839.8 195.9,839.8 208.1,867.4 "/> </g> <g clip-path="url(#SVGID_2_)"> <ellipse opacity="0.25" fill="#231F20" cx="554" cy="776.3" rx="22.4" ry="6.5"/> <rect x="554" y="752.3" fill="#814D1F" width="4.4" height="24"/> <rect x="549.7" y="752.3" fill="#AA6628" width="4.4" height="24"/> <polygon fill="#288B43" points="559.4,731.1 554,752.3 533.8,752.3 539,737.3 531.7,737.3 540.7,716.8 533.8,716.8 544.8,698.8 540.7,696.4 554,673.5 558.3,692.4 556.2,698.5 558.3,712.9 556.2,721.1 "/> <polygon fill="#23793C" points="569.1,737.3 574.3,752.3 554,752.3 559.4,731.1 556.2,721.1 558.3,712.9 556.2,698.5 558.3,692.4 554,673.5 567.4,696.4 563.3,698.8 574.3,716.8 567.4,716.8 576.4,737.3 "/> </g> <g clip-path="url(#SVGID_2_)"> <ellipse opacity="0.25" fill="#231F20" cx="526.5" cy="800.5" rx="22.4" ry="6.5"/> <rect x="526.5" y="776.5" fill="#814D1F" width="4.4" height="24"/> <rect x="522.1" y="776.5" fill="#AA6628" width="4.4" height="24"/> <polygon fill="#288B43" points="531.9,755.3 526.5,776.5 506.3,776.5 511.4,761.4 504.1,761.4 513.1,741 506.3,741 517.3,723 513.1,720.6 526.5,697.7 530.7,716.6 528.6,722.7 530.7,737.1 528.6,745.3 "/> <polygon fill="#23793C" points="541.6,761.4 546.7,776.5 526.5,776.5 531.9,755.3 528.6,745.3 530.7,737.1 528.6,722.7 530.7,716.6 526.5,697.7 539.9,720.6 535.8,723 546.7,741 539.9,741 548.9,761.4 "/> </g> <g clip-path="url(#SVGID_2_)"> <ellipse opacity="0.25" fill="#231F20" cx="588.1" cy="807.4" rx="25" ry="7.3"/> <rect x="588.1" y="780.7" fill="#814D1F" width="4.9" height="26.8"/> <rect x="583.2" y="780.7" fill="#AA6628" width="4.9" height="26.8"/> <polygon fill="#288B43" points="594,757 588.1,780.7 565.5,780.7 571.2,763.9 563.1,763.9 573.1,741 565.5,741 577.7,720.9 573.1,718.2 588.1,692.7 592.8,713.8 590.4,720.6 592.8,736.7 590.4,745.8 "/> <polygon fill="#23793C" points="604.9,763.9 610.6,780.7 588.1,780.7 594,757 590.4,745.8 592.8,736.7 590.4,720.6 592.8,713.8 588.1,692.7 603,718.2 598.4,720.9 610.6,741 603,741 613.1,763.9 "/> </g> <g clip-path="url(#SVGID_2_)"> <ellipse opacity="0.25" fill="#231F20" cx="75.3" cy="781.1" rx="34.3" ry="10"/> <rect x="75.3" y="744.4" fill="#814D1F" width="6.7" height="36.8"/> <rect x="68.6" y="744.4" fill="#AA6628" width="6.7" height="36.8"/> <polygon fill="#288B43" points="83.5,711.9 75.3,744.4 44.3,744.4 52.2,721.2 41,721.2 54.8,689.9 44.3,689.9 61.1,662.3 54.8,658.5 75.3,623.4 81.8,652.5 78.5,661.7 81.8,683.9 78.5,696.5 "/> <polygon fill="#23793C" points="98.5,721.2 106.3,744.4 75.3,744.4 83.5,711.9 78.5,696.5 81.8,683.9 78.5,661.7 81.8,652.5 75.3,623.4 95.8,658.5 89.5,662.3 106.3,689.9 95.8,689.9 109.7,721.2 "/> </g> <g clip-path="url(#SVGID_2_)"> <ellipse opacity="0.25" fill="#231F20" cx="713.8" cy="946.7" rx="34.3" ry="10"/> <rect x="713.8" y="909.9" fill="#814D1F" width="6.7" height="36.8"/> <rect x="707" y="909.9" fill="#AA6628" width="6.7" height="36.8"/> <polygon fill="#288B43" points="722,877.4 713.8,909.9 682.8,909.9 690.6,886.8 679.4,886.8 693.2,855.4 682.8,855.4 699.6,827.8 693.2,824.1 713.8,789 720.2,818.1 717,827.3 720.2,849.5 717,862 "/> <polygon fill="#23793C" points="736.9,886.8 744.8,909.9 713.8,909.9 722,877.4 717,862 720.2,849.5 717,827.3 720.2,818.1 713.8,789 734.3,824.1 727.9,827.8 744.8,855.4 734.3,855.4 748.1,886.8 "/> </g> <g clip-path="url(#SVGID_2_)"> <ellipse opacity="0.25" fill="#231F20" cx="781.5" cy="736.1" rx="24.3" ry="7.1"/> <rect x="781.5" y="710.1" fill="#814D1F" width="4.7" height="26"/> <rect x="776.7" y="710.1" fill="#AA6628" width="4.7" height="26"/> <polygon fill="#288B43" points="787.3,687.1 781.5,710.1 759.6,710.1 765.1,693.8 757.2,693.8 767,671.6 759.6,671.6 771.4,652.1 767,649.4 781.5,624.7 786,645.2 783.7,651.7 786,667.4 783.7,676.3 "/> <polygon fill="#23793C" points="797.8,693.8 803.4,710.1 781.5,710.1 787.3,687.1 783.7,676.3 786,667.4 783.7,651.7 786,645.2 781.5,624.7 796,649.4 791.5,652.1 803.4,671.6 796,671.6 805.7,693.8 "/> </g> <g clip-path="url(#SVGID_2_)"> <ellipse opacity="0.25" fill="#231F20" cx="700.7" cy="753.7" rx="27" ry="8.1"/> <rect x="700.7" y="723.8" fill="#814D1F" width="5.3" height="29.9"/> <rect x="695.4" y="723.8" fill="#AA6628" width="5.3" height="29.9"/> <polygon fill="#288B43" points="707.1,697.4 700.7,723.8 676.3,723.8 682.5,705 673.7,705 684.6,679.5 676.3,679.5 689.5,657 684.6,654 700.7,625.5 705.8,649.1 703.2,656.6 705.8,674.6 703.2,684.9 "/> <polygon fill="#23793C" points="718.9,705 725.1,723.8 700.7,723.8 707.1,697.4 703.2,684.9 705.8,674.6 703.2,656.6 705.8,649.1 700.7,625.5 716.8,654 711.8,657 725.1,679.5 716.8,679.5 727.7,705 "/> </g> <g opacity="0.7" clip-path="url(#SVGID_2_)"> <g> <path fill="#E6E7E8" d="M77.8,127.1c0,13.7-11.1,24.9-24.9,24.9H-7.5c-11.1,0-20.1-9-20.1-20.1c0-3.9,1.1-7.5,3-10.5 c3.5-5.7,9.9-9.6,17.1-9.6c1.8,0,3.5,0.2,5.2,0.7c1.3-12.6,11.9-22.4,24.8-22.4c9.7,0,18.1,5.5,22.2,13.6 c2.6-0.9,5.4-1.4,8.3-1.4c10,0,18.6,5.9,22.6,14.3C77,119.8,77.8,123.4,77.8,127.1z"/> </g> <g> <path fill="#F1F2F2" d="M75.5,116.6c-4,8.5-12.6,14.3-22.6,14.3H-7.5c-7.2,0-13.6-3.8-17.1-9.6c3.5-5.7,9.9-9.6,17.1-9.6 c1.8,0,3.5,0.2,5.2,0.7c1.3-12.6,11.9-22.4,24.8-22.4c9.7,0,18.1,5.5,22.2,13.6c2.6-0.9,5.4-1.4,8.3-1.4 C62.9,102.2,71.5,108.1,75.5,116.6z"/> </g> </g> <g opacity="0.7" clip-path="url(#SVGID_2_)"> <g> <path fill="#E6E7E8" d="M534.5,207.9c0,10.9-8.8,19.7-19.7,19.7h-47.7c-8.8,0-15.9-7.1-15.9-15.9c0-3.1,0.9-5.9,2.4-8.3 c2.8-4.5,7.8-7.6,13.5-7.6c1.4,0,2.8,0.2,4.1,0.5c1-9.9,9.4-17.7,19.6-17.7c7.6,0,14.3,4.4,17.5,10.7c2-0.7,4.2-1.1,6.5-1.1 c7.9,0,14.7,4.6,17.8,11.3C533.9,202.1,534.5,204.9,534.5,207.9z"/> </g> <g> <path fill="#F1F2F2" d="M532.7,199.5c-3.1,6.7-9.9,11.3-17.8,11.3h-47.7c-5.7,0-10.7-3-13.5-7.6c2.8-4.5,7.8-7.6,13.5-7.6 c1.4,0,2.8,0.2,4.1,0.5c1-9.9,9.4-17.7,19.6-17.7c7.6,0,14.3,4.4,17.5,10.7c2-0.7,4.2-1.1,6.5-1.1 C522.8,188.2,529.6,192.8,532.7,199.5z"/> </g> </g> <g opacity="0.7" clip-path="url(#SVGID_2_)"> <g> <path fill="#E6E7E8" d="M434,274.2c0,10.9-8.8,19.7-19.7,19.7h-47.7c-8.8,0-15.9-7.1-15.9-15.9c0-3.1,0.9-5.9,2.4-8.3 c2.8-4.5,7.8-7.6,13.5-7.6c1.4,0,2.8,0.2,4.1,0.5c1-9.9,9.4-17.7,19.6-17.7c7.6,0,14.3,4.4,17.5,10.7c2-0.7,4.2-1.1,6.5-1.1 c7.9,0,14.7,4.6,17.8,11.3C433.4,268.4,434,271.2,434,274.2z"/> </g> <g> <path fill="#F1F2F2" d="M432.2,265.9c-3.1,6.7-9.9,11.3-17.8,11.3h-47.7c-5.7,0-10.7-3-13.5-7.6c2.8-4.5,7.8-7.6,13.5-7.6 c1.4,0,2.8,0.2,4.1,0.5c1-9.9,9.4-17.7,19.6-17.7c7.6,0,14.3,4.4,17.5,10.7c2-0.7,4.2-1.1,6.5-1.1 C422.3,254.6,429.1,259.2,432.2,265.9z"/> </g> </g> <g opacity="0.7" clip-path="url(#SVGID_2_)"> <g> <path fill="#E6E7E8" d="M746.6,150.4c0,12.2-9.9,22.2-22.2,22.2h-53.8c-9.9,0-17.9-8-17.9-17.9c0-3.4,1-6.7,2.7-9.4 c3.2-5.1,8.8-8.5,15.3-8.5c1.6,0,3.1,0.2,4.6,0.6c1.1-11.2,10.6-19.9,22.1-19.9c8.6,0,16.1,4.9,19.8,12.1 c2.3-0.8,4.8-1.3,7.4-1.3c8.9,0,16.5,5.2,20.1,12.8C745.8,143.9,746.6,147.1,746.6,150.4z"/> </g> <g> <path fill="#F1F2F2" d="M744.5,141c-3.5,7.5-11.2,12.8-20.1,12.8h-53.8c-6.5,0-12.1-3.4-15.3-8.5c3.2-5.1,8.8-8.5,15.3-8.5 c1.6,0,3.1,0.2,4.6,0.6c1.1-11.2,10.6-19.9,22.1-19.9c8.6,0,16.1,4.9,19.8,12.1c2.3-0.8,4.8-1.3,7.4-1.3 C733.3,128.3,740.9,133.5,744.5,141z"/> </g> </g> </g> </svg>