<!DOCTYPE svg PUBLIC "-//W3C//DTD SVG 1.1//EN" "http://www.w3.org/Graphics/SVG/1.1/DTD/svg11.dtd">
<!-- Uploaded to: SVG Repo, www.svgrepo.com, Transformed by: SVG Repo Mixer Tools -->
<svg height="800px" width="800px" version="1.1" id="Layer_1" xmlns="http://www.w3.org/2000/svg" xmlns:xlink="http://www.w3.org/1999/xlink" viewBox="0 0 297.029 297.029" xml:space="preserve" fill="#000000">
<g id="SVGRepo_bgCarrier" stroke-width="0"/>
<g id="SVGRepo_tracerCarrier" stroke-linecap="round" stroke-linejoin="round"/>
<g id="SVGRepo_iconCarrier"> <g> <circle style="fill:#00c8f5;" cx="148.514" cy="164.113" r="125.417"/> <path style="fill:#28D2E4;" d="M148.514,38.696c5.164,0,10.252,0.319,15.252,0.925V7.5h-30.504v32.121 C138.261,39.015,143.35,38.696,148.514,38.696z"/> <circle style="fill:#ffffff;" cx="148.514" cy="164.113" r="88.683"/> <g> <path style="fill:#2e2e2e;" d="M171.266,33.152V7.5c0-4.143-3.357-7.5-7.5-7.5h-30.504c-4.143,0-7.5,3.357-7.5,7.5v25.652 C63.273,43.976,15.597,98.578,15.597,164.112c0,73.291,59.626,132.917,132.917,132.917s132.917-59.626,132.917-132.917 C281.431,98.578,233.755,43.976,171.266,33.152z M140.762,31.423V15h15.504v16.423C151.535,31.14,145.932,31.114,140.762,31.423z M148.514,282.029c-65.02,0-117.917-52.897-117.917-117.917c0-60.343,45.564-110.235,104.093-117.102 c9.296-1.084,18.461-1.071,27.647,0c58.529,6.866,104.093,56.759,104.093,117.102 C266.431,229.132,213.533,282.029,148.514,282.029z"/> <path style="fill:#2e2e2e;" d="M148.514,67.93c-52.98,0-96.183,43.116-96.183,96.183c0,52.976,43.105,96.184,96.183,96.184 c53.124,0,96.183-43.266,96.183-96.184C244.697,111.131,201.579,67.93,148.514,67.93z M219.794,171.612h9.544 c-1.543,16.762-8.192,32.065-18.389,44.328l-6.727-6.728c-2.93-2.929-7.679-2.93-10.607-0.001 c-2.93,2.929-2.93,7.678-0.001,10.606l6.729,6.729c-12.263,10.197-27.565,16.847-44.327,18.39v-9.544c0-4.143-3.357-7.5-7.5-7.5 s-7.5,3.357-7.5,7.5v9.544c-16.762-1.543-32.064-8.193-44.327-18.39l6.728-6.729c2.929-2.929,2.929-7.678-0.001-10.606 c-2.928-2.928-7.677-2.929-10.606,0.001l-6.727,6.728c-10.197-12.263-16.846-27.566-18.39-44.328h9.544c4.143,0,7.5-3.357,7.5-7.5 s-3.357-7.5-7.5-7.5h-9.544c1.543-16.762,8.192-32.064,18.389-44.327l6.728,6.728c2.929,2.929,7.677,2.93,10.606,0.001 c2.93-2.929,2.93-7.678,0.001-10.606l-6.729-6.729c12.263-10.197,27.565-16.846,44.327-18.389v9.544c0,4.143,3.357,7.5,7.5,7.5 s7.5-3.357,7.5-7.5V83.29c16.762,1.543,32.065,8.192,44.327,18.389l-6.729,6.729c-2.929,2.929-2.929,7.678,0.001,10.606 c2.928,2.928,7.676,2.929,10.607-0.001l6.727-6.728c10.197,12.262,16.846,27.565,18.389,44.327h-9.544c-4.143,0-7.5,3.357-7.5,7.5 C212.294,168.255,215.65,171.612,219.794,171.612z"/> <path style="fill:#2e2e2e;" d="M167.984,131.767l-25,27.278c-2.799,3.054-2.592,7.798,0.462,10.597 c1.439,1.319,3.255,1.971,5.065,1.971c2.029,0,4.052-0.818,5.531-2.433l25-27.278c2.799-3.054,2.592-7.798-0.462-10.597 C175.529,128.507,170.785,128.713,167.984,131.767z"/> </g> </g> </g>
</svg>